# xmcd
#
# Track frame offsets:
#	150
#	11095
#	25855
#	38512
#	57625
#	67875
#	87325
#	100450
#	111797
#	124922
#	144285
#	152890
#	168602
#	182307
#	197172
#	213782
#	223702
#	235592
#	254250
#	276285
#	288010
#	301720
#	318795
# Disc length: 4459 seconds
# Revision: 1
# Processed by: cddbd v1.5.2PL0 Copyright (c) Steve Scherf et al.
#
# Submitted via: libkcddb 0.31
#
DISCID=3b116917
DTITLE=Různí - Country Vánoce
DYEAR=2007
DGENRE=Unknown
TTITLE0=Skladba 01
TTITLE1=Skladba 02
TTITLE2=Skladba 03
TTITLE3=Skladba 04
TTITLE4=Skladba 05
TTITLE5=Skladba 06
TTITLE6=Skladba 07
TTITLE7=Skladba 08
TTITLE8=Skladba 09
TTITLE9=Skladba 10
TTITLE10=Skladba 11
TTITLE11=Skladba 12
TTITLE12=Skladba 13
TTITLE13=Skladba 14
TTITLE14=Skladba 15
TTITLE15=Skladba 16
TTITLE16=Skladba 17
TTITLE17=Skladba 18
TTITLE18=Skladba 19
TTITLE19=Skladba 20
TTITLE20=Skladba 21
TTITLE21=Skladba 22
TTITLE22=Skladba 23
EXTD=
EXTT0=
EXTT1=
EXTT2=
EXTT3=
EXTT4=
EXTT5=
EXTT6=
EXTT7=
EXTT8=
EXTT9=
EXTT10=
EXTT11=
EXTT12=
EXTT13=
EXTT14=
EXTT15=
EXTT16=
EXTT17=
EXTT18=
EXTT19=
EXTT20=
EXTT21=
EXTT22=
PLAYORDER=
